<svg width="1499" height="318" viewBox="0 0 1499 318" fill="none" xmlns="http://www.w3.org/2000/svg">
<path d="M324.527 6.59473C324.555 6.58162 343.033 -2.27047 363.396 0.557617C383.773 3.38781 390.23 8.2319 398.112 15.2744C409.535 25.4797 415.712 49.0529 414.339 63.1992C413.996 66.731 411.167 71.371 409.382 73.9932L392.99 101.656L358.273 159.015L325.82 209.203C325.756 209.285 308.853 230.726 315.632 237.882C322.417 245.044 359.324 226.602 359.405 226.562C359.405 226.562 400.16 203.543 418.65 199.015L419.204 198.879C437.321 194.441 446.25 192.254 463.556 194.486C482.581 196.94 494.076 200.821 509.217 212.6C522.734 223.115 527.382 232.522 536.009 247.316C542.386 258.253 545.703 264.703 549.594 276.75C553.921 290.146 556.009 312.222 556.009 312.222C556.009 312.222 520.915 284.675 509.217 278.637C497.519 272.599 481.669 268.448 465.442 268.825C449.216 269.203 424.311 273.354 413.745 276.373C403.179 279.392 351.48 300.523 351.48 300.523C351.396 300.563 334.139 308.625 322.425 311.844C304.975 316.639 294.32 319.554 276.387 317.127C266.537 315.794 260.564 315.131 251.858 310.335C244.62 306.347 240.471 303.449 235.632 296.75C230.552 289.717 228.921 284.586 227.708 275.995C226.945 270.596 227.037 267.444 227.708 262.033C228.859 252.756 235.603 239.448 235.632 239.392L257.142 199.015L309.217 115.995L341.715 62.5781C334.29 68.9426 327.428 75.9866 321.131 81.6895C320.987 81.8486 260.802 148.502 215.849 183.953C195.362 200.109 183.495 208.774 161.509 222.821C126.014 245.5 102.456 251.845 66.0371 273.01C39.7682 288.276 0 314.142 0 314.142C0 314.142 4.75963 285.778 9.81152 268.104C13.0132 256.902 14.4343 250.412 19.2451 239.802C22.7855 231.993 24.8179 227.526 29.8115 220.557C38.1317 208.944 44.6226 203.431 56.6035 195.651C68.0612 188.211 76.46 187.799 88.6787 181.689C113.102 169.476 125.279 159.758 147.547 143.953C166.055 130.817 176.052 122.895 193.584 108.481C216.802 89.3938 227.736 76.263 250.942 57.1611C266.51 44.3471 277.735 36.5505 291.697 25.4629C305.659 14.3753 324.527 6.59473 324.527 6.59473Z" fill="url(#paint0_linear_17_11)"/>
<path d="M575 238L638 98H663.6L726.8 238H699.6L645.4 111.8H655.8L601.8 238H575ZM604 205.6L611 185.2H686.6L693.6 205.6H604ZM788.005 240C777.071 240 766.605 238.467 756.605 235.4C746.605 232.2 738.671 228.133 732.805 223.2L741.805 203C747.405 207.4 754.338 211.067 762.605 214C770.871 216.933 779.338 218.4 788.005 218.4C795.338 218.4 801.271 217.6 805.805 216C810.338 214.4 813.671 212.267 815.805 209.6C817.938 206.8 819.005 203.667 819.005 200.2C819.005 195.933 817.471 192.533 814.405 190C811.338 187.333 807.338 185.267 802.405 183.8C797.605 182.2 792.205 180.733 786.205 179.4C780.338 178.067 774.405 176.533 768.405 174.8C762.538 172.933 757.138 170.6 752.205 167.8C747.405 164.867 743.471 161 740.405 156.2C737.338 151.4 735.805 145.267 735.805 137.8C735.805 130.2 737.805 123.267 741.805 117C745.938 110.6 752.138 105.533 760.405 101.8C768.805 97.9333 779.405 96 792.205 96C800.605 96 808.938 97.0667 817.205 99.2C825.471 101.333 832.671 104.4 838.805 108.4L830.605 128.6C824.338 124.867 817.871 122.133 811.205 120.4C804.538 118.533 798.138 117.6 792.005 117.6C784.805 117.6 778.938 118.467 774.405 120.2C770.005 121.933 766.738 124.2 764.605 127C762.605 129.8 761.605 133 761.605 136.6C761.605 140.867 763.071 144.333 766.005 147C769.071 149.533 773.005 151.533 777.805 153C782.738 154.467 788.205 155.933 794.205 157.4C800.205 158.733 806.138 160.267 812.005 162C818.005 163.733 823.405 166 828.205 168.8C833.138 171.6 837.071 175.4 840.005 180.2C843.071 185 844.605 191.067 844.605 198.4C844.605 205.867 842.538 212.8 838.405 219.2C834.405 225.467 828.205 230.533 819.805 234.4C811.405 238.133 800.805 240 788.005 240ZM935.186 240C924.519 240 914.586 238.267 905.386 234.8C896.319 231.2 888.386 226.2 881.586 219.8C874.919 213.267 869.719 205.6 865.986 196.8C862.253 188 860.386 178.4 860.386 168C860.386 157.6 862.253 148 865.986 139.2C869.719 130.4 874.986 122.8 881.786 116.4C888.586 109.867 896.519 104.867 905.586 101.4C914.653 97.8 924.586 96 935.386 96C946.853 96 957.319 98 966.786 102C976.253 105.867 984.253 111.667 990.786 119.4L973.986 135.2C968.919 129.733 963.253 125.667 956.986 123C950.719 120.2 943.919 118.8 936.586 118.8C929.253 118.8 922.519 120 916.386 122.4C910.386 124.8 905.119 128.2 900.586 132.6C896.186 137 892.719 142.2 890.186 148.2C887.786 154.2 886.586 160.8 886.586 168C886.586 175.2 887.786 181.8 890.186 187.8C892.719 193.8 896.186 199 900.586 203.4C905.119 207.8 910.386 211.2 916.386 213.6C922.519 216 929.253 217.2 936.586 217.2C943.919 217.2 950.719 215.867 956.986 213.2C963.253 210.4 968.919 206.2 973.986 200.6L990.786 216.6C984.253 224.2 976.253 230 966.786 234C957.319 238 946.786 240 935.186 240ZM1039.7 156.2H1109.3V177.6H1039.7V156.2ZM1041.7 216.2H1120.7V238H1015.7V98H1117.9V119.8H1041.7V216.2ZM1149.68 238V98H1171.08L1258.88 205.8H1248.28V98H1274.08V238H1252.68L1164.88 130.2H1175.48V238H1149.68ZM1311.6 238V98H1372.8C1388 98 1401.33 100.933 1412.8 106.8C1424.26 112.667 1433.2 120.8 1439.6 131.2C1446 141.6 1449.2 153.867 1449.2 168C1449.2 182 1446 194.267 1439.6 204.8C1433.2 215.2 1424.26 223.333 1412.8 229.2C1401.33 235.067 1388 238 1372.8 238H1311.6ZM1337.6 216H1371.6C1382.13 216 1391.2 214 1398.8 210C1406.53 206 1412.46 200.4 1416.6 193.2C1420.86 186 1423 177.6 1423 168C1423 158.267 1420.86 149.867 1416.6 142.8C1412.46 135.6 1406.53 130 1398.8 126C1391.2 122 1382.13 120 1371.6 120H1337.6V216Z" fill="url(#paint1_linear_17_11)"/>
<defs>
<linearGradient id="paint0_linear_17_11" x1="2.62027e-06" y1="178.672" x2="386.037" y2="27.3498" gradientUnits="userSpaceOnUse">
<stop offset="0.105286" stop-color="#5225B9"/>
<stop offset="0.653614" stop-color="#251153"/>
</linearGradient>
<linearGradient id="paint1_linear_17_11" x1="576" y1="175.5" x2="1499" y2="175.5" gradientUnits="userSpaceOnUse">
<stop offset="0.336538" stop-color="#210D64"/>
<stop offset="1" stop-color="#431ACA"/>
</linearGradient>
</defs>
</svg>
