<svg width="737" height="422" viewBox="0 0 737 422" fill="none" xmlns="http://www.w3.org/2000/svg">
<path d="M430 8.73853C430.047 8.7158 454.526 -3.00783 481.5 0.738525C508.5 4.48852 517.056 10.9072 527.5 20.2385C542.635 33.7605 550.819 64.9945 549 83.7385C548.546 88.4216 544.793 94.5759 542.428 98.0491L520.713 134.695L474.713 210.695L431.713 277.195C431.653 277.271 409.226 305.707 418.213 315.195C427.2 324.681 476.075 300.263 476.213 300.195C476.213 300.195 530.213 269.695 554.713 263.695L555.447 263.515C579.452 257.635 591.283 254.737 614.213 257.695C639.422 260.946 654.651 266.088 674.713 281.695C692.623 295.628 698.783 308.092 710.213 327.695C718.663 342.185 723.057 350.732 728.213 366.695C733.94 384.426 736.707 413.636 736.713 413.695C736.579 413.59 690.191 377.183 674.713 369.195C659.213 361.195 638.213 355.695 616.713 356.195C595.213 356.695 562.213 362.195 548.213 366.195C534.212 370.195 465.713 398.195 465.713 398.195C465.616 398.24 442.739 408.928 427.213 413.195C404.092 419.548 389.974 423.41 366.213 420.195C353.162 418.428 345.248 417.549 333.713 411.195C324.122 405.911 318.625 402.071 312.213 393.195C305.482 383.876 303.321 377.077 301.713 365.695C300.702 358.541 300.823 354.364 301.713 347.195C303.239 334.895 312.186 317.248 312.213 317.195L340.714 263.695L409.713 153.695L452.781 82.9036C442.94 91.339 433.847 100.679 425.5 108.239C425.5 108.239 345.634 196.71 286 243.739C258.855 265.146 243.131 276.625 214 295.239C166.969 325.289 135.755 333.696 87.5 361.739C52.7223 381.949 0.0866178 416.182 0 416.239C0.0178957 416.132 6.31575 378.624 13 355.239C17.2423 340.396 19.1256 331.798 25.5 317.739C30.1911 307.392 32.8834 301.473 39.5 292.239C50.5243 276.852 59.125 269.547 75 259.239C90.1815 249.38 101.31 248.834 117.5 240.739C149.861 224.556 165.995 211.681 195.5 190.739C220.024 173.332 233.27 162.836 256.5 143.739C287.264 118.447 301.751 101.049 332.5 75.7385C353.127 58.7599 368 48.4296 386.5 33.7385C405 19.0474 430 8.73853 430 8.73853Z" fill="url(#paint0_linear_28_152)"/>
<defs>
<linearGradient id="paint0_linear_28_152" x1="7.14537e-06" y1="236.742" x2="511.5" y2="36.2391" gradientUnits="userSpaceOnUse">
<stop offset="0.105286" stop-color="#5225B9"/>
<stop offset="0.653614" stop-color="#251153"/>
</linearGradient>
</defs>
</svg>
